<svg width="11" height="7" viewBox="0 0 11 7" fill="none" xmlns="http://www.w3.org/2000/svg">
<path d="M5.224 6.24C5.28092 6.29694 5.34851 6.3421 5.42289 6.37292C5.49727 6.40373 5.57699 6.41959 5.6575 6.41959C5.73801 6.41959 5.81773 6.40373 5.89211 6.37292C5.96649 6.3421 6.03408 6.29694 6.091 6.24L10.609 1.722C10.7238 1.60663 10.7881 1.45037 10.7878 1.28759C10.7874 1.12481 10.7224 0.968841 10.607 0.854002C10.4916 0.739164 10.3354 0.674858 10.1726 0.675234C10.0098 0.675609 9.85384 0.740633 9.739 0.856002L5.655 4.94L1.57 0.856002C1.45503 0.741031 1.29909 0.676441 1.1365 0.676441C0.973905 0.676441 0.81797 0.741031 0.702999 0.856002C0.588028 0.970974 0.523438 1.12691 0.523438 1.2895C0.523437 1.4521 0.588028 1.60803 0.702999 1.723L5.224 6.24Z" fill="#B9B0B0"/>
</svg>
