<svg width="22" height="23" viewBox="0 0 22 23" fill="none" xmlns="http://www.w3.org/2000/svg">
<path d="M20.8269 22.167C21.0597 22.1696 21.288 22.1026 21.4825 21.9745C21.677 21.8465 21.8288 21.6633 21.9185 21.4485C22.0082 21.2336 22.0317 20.9968 21.986 20.7685C21.9403 20.5402 21.8274 20.3308 21.6619 20.167L17.7369 16.243C19.2376 14.3304 19.9525 11.9174 19.7359 9.49595C19.5192 7.07449 18.3873 4.82679 16.5708 3.21096C14.7544 1.59514 12.3901 0.732821 9.95987 0.799768C7.52965 0.866715 5.21643 1.85789 3.49168 3.57126C1.76693 5.28464 0.760477 7.59125 0.677451 10.021C0.594426 12.4507 1.44108 14.8206 3.04485 16.6477C4.64862 18.4749 6.88879 19.6216 9.30876 19.8543C11.7287 20.087 14.1464 19.3881 16.0689 17.9L19.9939 21.825C20.1024 21.9344 20.2315 22.0212 20.3738 22.0803C20.5162 22.1393 20.6688 22.1695 20.8229 22.169M3.1709 10.447C3.1709 9.04137 3.58771 7.66731 4.36864 6.49857C5.14957 5.32983 6.25953 4.41891 7.55816 3.881C8.8568 3.34308 10.2858 3.20234 11.6644 3.47657C13.043 3.75079 14.3094 4.42767 15.3033 5.4216C16.2972 6.41553 16.9741 7.68188 17.2483 9.0605C17.5226 10.4391 17.3818 11.8681 16.8439 13.1667C16.306 14.4654 15.3951 15.5753 14.2263 16.3563C13.0576 17.1372 11.6835 17.554 10.2779 17.554C8.39341 17.5527 6.58648 16.8035 5.25395 15.471C3.92142 14.1384 3.17222 12.3315 3.1709 10.447Z" fill="#B9B0B0"/>
</svg>
