<svg width="23" height="22" viewBox="0 0 23 22" fill="none" xmlns="http://www.w3.org/2000/svg">
<path d="M1.91803 12.639H21.571C21.9499 12.639 22.3132 12.4885 22.5811 12.2206C22.849 11.9527 22.9995 11.5894 22.9995 11.2105C22.9995 10.8316 22.849 10.4683 22.5811 10.2004C22.3132 9.93251 21.9499 9.78201 21.571 9.78201H1.91803C1.53917 9.78201 1.17585 9.93251 0.907959 10.2004C0.640063 10.4683 0.489502 10.8316 0.489502 11.2105C0.489502 11.5894 0.640063 11.9527 0.907959 12.2206C1.17585 12.4885 1.53917 12.639 1.91803 12.639Z" fill="black"/>
<path d="M1.91803 19.782H21.571C21.9499 19.782 22.3132 19.6315 22.5811 19.3636C22.849 19.0957 22.9995 18.7324 22.9995 18.3535C22.9995 17.9746 22.849 17.6113 22.5811 17.3434C22.3132 17.0755 21.9499 16.925 21.571 16.925H1.91803C1.53917 16.925 1.17585 17.0755 0.907959 17.3434C0.640063 17.6113 0.489502 17.9746 0.489502 18.3535C0.489502 18.7324 0.640063 19.0957 0.907959 19.3636C1.17585 19.6315 1.53917 19.782 1.91803 19.782Z" fill="black"/>
<path d="M1.91803 5.49699H21.571C21.9499 5.49699 22.3132 5.34649 22.5811 5.0786C22.849 4.8107 22.9995 4.44736 22.9995 4.0685C22.9995 3.68963 22.849 3.32631 22.5811 3.05841C22.3132 2.79051 21.9499 2.64001 21.571 2.64001H1.91803C1.53917 2.64001 1.17585 2.79051 0.907959 3.05841C0.640063 3.32631 0.489502 3.68963 0.489502 4.0685C0.489502 4.44736 0.640063 4.8107 0.907959 5.0786C1.17585 5.34649 1.53917 5.49699 1.91803 5.49699Z" fill="black"/>
<path d="M6.63189 7.38999C8.43951 7.38999 9.90489 5.92462 9.90489 4.11699C9.90489 2.30937 8.43951 0.843994 6.63189 0.843994C4.82426 0.843994 3.35889 2.30937 3.35889 4.11699C3.35889 5.92462 4.82426 7.38999 6.63189 7.38999Z" fill="black"/>
<path d="M18.6351 13.937C20.4427 13.937 21.9081 12.4716 21.9081 10.664C21.9081 8.85636 20.4427 7.39099 18.6351 7.39099C16.8274 7.39099 15.3621 8.85636 15.3621 10.664C15.3621 12.4716 16.8274 13.937 18.6351 13.937Z" fill="black"/>
<path d="M6.63189 21.575C8.43951 21.575 9.90489 20.1096 9.90489 18.302C9.90489 16.4944 8.43951 15.029 6.63189 15.029C4.82426 15.029 3.35889 16.4944 3.35889 18.302C3.35889 20.1096 4.82426 21.575 6.63189 21.575Z" fill="black"/>
</svg>
