<svg width="20" height="21" viewBox="0 0 20 21" fill="none" xmlns="http://www.w3.org/2000/svg">
<path d="M14.181 20.577C15.6073 20.5756 16.9748 20.0085 17.9834 19.0001C18.992 17.9916 19.5594 16.6242 19.561 15.198V9.43895C19.5607 8.65185 19.3944 7.87365 19.0731 7.15514C18.7517 6.43662 18.2824 5.79392 17.696 5.26895L13.415 1.43594C12.3783 0.500281 11.0281 -0.0121304 9.63165 9.1637e-05C8.23519 0.0123137 6.89421 0.548273 5.87402 1.50194L1.79102 5.28894C1.22761 5.81326 0.777933 6.44773 0.469849 7.153C0.161764 7.85827 0.00182937 8.61932 0 9.38895V15.2C0.00185271 16.6262 0.569308 17.9934 1.57788 19.0018C2.58645 20.0102 3.9538 20.5774 5.38 20.5789L14.181 20.577ZM2.34503 15.1939V9.38794C2.34607 8.94032 2.43898 8.49768 2.61804 8.08743C2.79711 7.67719 3.05847 7.30807 3.38599 7.00294L7.46899 3.21594C8.06242 2.66204 8.84207 2.35092 9.65381 2.34407C10.4655 2.33722 11.2503 2.63513 11.853 3.17894L16.134 7.01195C16.4749 7.31715 16.7475 7.69077 16.9343 8.10843C17.1211 8.52609 17.2178 8.97842 17.218 9.43594V15.2C17.217 16.0047 16.8967 16.7762 16.3276 17.3452C15.7584 17.9142 14.9868 18.2341 14.182 18.2349H5.38202C4.98293 18.2347 4.58779 18.1558 4.21918 18.0029C3.85057 17.8499 3.51572 17.6258 3.2337 17.3434C2.95169 17.061 2.72804 16.7259 2.57556 16.3571C2.42308 15.9883 2.34477 15.593 2.34503 15.1939Z" fill="#B9B0B0"/>
</svg>
