<svg width="24" height="24" viewBox="0 0 24 24" fill="none" xmlns="http://www.w3.org/2000/svg">
<path d="M12.2619 23.476C14.5835 23.476 16.8529 22.7876 18.7832 21.4978C20.7135 20.208 22.218 18.3748 23.1064 16.2299C23.9948 14.0851 24.2273 11.725 23.7744 9.44804C23.3215 7.17109 22.2035 5.07957 20.5619 3.43799C18.9204 1.7964 16.8288 0.678461 14.5519 0.225548C12.2749 -0.227366 9.91483 0.00508589 7.76999 0.893507C5.62515 1.78193 3.79192 3.28642 2.50214 5.21672C1.21235 7.14703 0.523926 9.41645 0.523926 11.738L0.523926 19.887C0.526828 20.8381 0.906023 21.7495 1.57868 22.422C2.25134 23.0944 3.16278 23.4734 4.11393 23.476H12.2619ZM2.86893 19.887V11.738C2.86893 9.88025 3.41982 8.06421 4.45193 6.51953C5.48405 4.97486 6.95103 3.77094 8.66738 3.06C10.3837 2.34907 12.2723 2.16306 14.0944 2.52549C15.9165 2.88792 17.5901 3.78252 18.9038 5.09615C20.2174 6.40979 21.112 8.08346 21.4744 9.90552C21.8369 11.7276 21.6509 13.6162 20.9399 15.3326C20.229 17.0489 19.0251 18.5159 17.4804 19.548C15.9357 20.5801 14.1197 21.131 12.2619 21.131H4.11493C3.78472 21.131 3.46799 21 3.23422 20.7668C3.00045 20.5336 2.86872 20.2172 2.86793 19.887H2.86893Z" fill="#B9B0B0"/>
<path d="M7.87188 10.267C8.16282 10.267 8.44722 10.3533 8.68912 10.5149C8.93103 10.6765 9.11957 10.9063 9.23091 11.1751C9.34224 11.4439 9.37137 11.7396 9.31461 12.025C9.25786 12.3103 9.11776 12.5724 8.91203 12.7782C8.70631 12.9839 8.4442 13.124 8.15886 13.1807C7.87351 13.2375 7.57774 13.2084 7.30895 13.097C7.04016 12.9857 6.81042 12.7971 6.64879 12.5552C6.48715 12.3133 6.40088 12.0289 6.40088 11.738C6.40114 11.3479 6.55621 10.9739 6.83202 10.6981C7.10783 10.4223 7.48183 10.2673 7.87188 10.267Z" fill="#B9B0B0"/>
<path d="M16.6509 10.267C16.9419 10.267 17.2263 10.3533 17.4682 10.5149C17.7101 10.6765 17.8986 10.9063 18.01 11.1751C18.1213 11.4439 18.1504 11.7396 18.0937 12.025C18.0369 12.3103 17.8968 12.5724 17.6911 12.7782C17.4854 12.9839 17.2233 13.124 16.9379 13.1807C16.6526 13.2375 16.3568 13.2084 16.088 13.097C15.8192 12.9857 15.5895 12.7971 15.4278 12.5552C15.2662 12.3133 15.1799 12.0289 15.1799 11.738C15.1802 11.3479 15.3353 10.9739 15.6111 10.6981C15.8869 10.4223 16.2609 10.2673 16.6509 10.267Z" fill="#B9B0B0"/>
<path d="M12.261 10.267C12.552 10.267 12.8364 10.3533 13.0783 10.5149C13.3202 10.6765 13.5087 10.9063 13.6201 11.1751C13.7314 11.4439 13.7605 11.7396 13.7038 12.025C13.647 12.3103 13.5069 12.5724 13.3012 12.7782C13.0955 12.9839 12.8334 13.124 12.548 13.1807C12.2627 13.2375 11.9669 13.2084 11.6981 13.097C11.4293 12.9857 11.1996 12.7971 11.0379 12.5552C10.8763 12.3133 10.79 12.0289 10.79 11.738C10.7903 11.3479 10.9454 10.9739 11.2212 10.6981C11.497 10.4223 11.871 10.2673 12.261 10.267Z" fill="#B9B0B0"/>
</svg>
