<svg width="23" height="21" viewBox="0 0 23 21" fill="none" xmlns="http://www.w3.org/2000/svg">
<path d="M16.86 0.114031C15.8855 -0.0680124 14.8831 -0.0349822 13.9227 0.210812C12.9623 0.456606 12.0672 0.909231 11.3 1.53703C11.279 1.55503 11.267 1.55703 11.247 1.53703C10.4793 0.911134 9.58466 0.459679 8.62511 0.213963C7.66556 -0.0317525 6.66405 -0.065851 5.69 0.114031C3.89305 0.486483 2.30862 1.53681 1.26579 3.04686C0.222959 4.55692 -0.198122 6.41064 0.0900029 8.22303C1.077 15.859 10.4 20.079 10.8 20.255C10.95 20.3213 11.1121 20.3555 11.276 20.3555C11.4399 20.3555 11.6021 20.3213 11.752 20.255C12.152 20.079 21.47 15.855 22.452 8.22303C22.7406 6.41175 22.3207 4.55888 21.2795 3.04896C20.2383 1.53905 18.6556 0.488027 16.86 0.114031ZM20.13 7.92303C19.43 13.366 13.08 16.962 11.275 17.881C9.469 16.962 3.123 13.366 2.42 7.92303C2.27531 7.25048 2.28307 6.55406 2.44271 5.8849C2.60236 5.21575 2.90984 4.59083 3.34258 4.05605C3.77532 3.52126 4.32233 3.09018 4.94346 2.79444C5.56459 2.49871 6.24406 2.34583 6.932 2.34703C7.96794 2.34611 8.97221 2.70407 9.774 3.36003C10.1972 3.70626 10.7272 3.89541 11.274 3.89541C11.8208 3.89541 12.3508 3.70626 12.774 3.36003C13.2815 2.94648 13.8729 2.64836 14.5072 2.48638C15.1414 2.3244 15.8034 2.30244 16.447 2.42203C17.6495 2.69085 18.7026 3.41182 19.3882 4.43565C20.0738 5.45949 20.3394 6.70777 20.13 7.92203V7.92303Z" fill="#B9B0B0"/>
</svg>
