<svg width="11" height="12" viewBox="0 0 11 12" fill="none" xmlns="http://www.w3.org/2000/svg">
<path d="M5.32606 11.554C5.42293 11.6503 5.55397 11.7043 5.69056 11.7043C5.82715 11.7043 5.95819 11.6503 6.05506 11.554L9.06606 8.54697C9.92148 7.64534 10.3911 6.44537 10.375 5.20262C10.3588 3.95986 9.85814 2.77251 8.97957 1.89341C8.10099 1.01432 6.91394 0.512939 5.67119 0.496047C4.42845 0.479154 3.2282 0.948084 2.32606 1.80297C1.43182 2.69732 0.929443 3.91025 0.929443 5.17497C0.929443 6.4397 1.43182 7.65263 2.32606 8.54697L5.32606 11.554ZM3.05206 2.53297C3.39748 2.17884 3.80977 1.89682 4.26503 1.70326C4.72028 1.50969 5.20944 1.40845 5.70413 1.40539C6.19881 1.40234 6.68918 1.49753 7.1468 1.68545C7.60441 1.87337 8.02016 2.15028 8.36993 2.50011C8.7197 2.84995 8.99653 3.26575 9.18436 3.7234C9.37219 4.18105 9.46729 4.67144 9.46414 5.16612C9.46099 5.66081 9.35965 6.14994 9.16601 6.60516C8.97236 7.06038 8.69026 7.47262 8.33606 7.81798L5.69406 10.46L3.05206 7.81798C2.70476 7.47101 2.42926 7.059 2.24128 6.6055C2.05331 6.15199 1.95656 5.66589 1.95656 5.17497C1.95656 4.68406 2.05331 4.19796 2.24128 3.74445C2.42926 3.29095 2.70476 2.87894 3.05206 2.53197V2.53297Z" fill="#B9B0B0"/>
<path d="M5.69401 6.78899C6.01255 6.78899 6.32394 6.69455 6.58882 6.51762C6.85371 6.34069 7.06019 6.08921 7.18219 5.79495C7.30418 5.5007 7.3362 5.17688 7.2742 4.86443C7.2122 4.55198 7.05896 4.26493 6.83386 4.03954C6.60876 3.81416 6.32189 3.66057 6.00952 3.59819C5.69715 3.5358 5.3733 3.56742 5.07889 3.68904C4.78448 3.81067 4.53274 4.01684 4.35548 4.28151C4.17822 4.54617 4.0834 4.85745 4.08301 5.17599C4.08301 5.60343 4.25267 6.01341 4.55474 6.31584C4.8568 6.61828 5.26656 6.78846 5.69401 6.78899ZM5.69401 4.59799C5.80872 4.59799 5.92086 4.632 6.01624 4.69573C6.11162 4.75947 6.18596 4.85005 6.22986 4.95603C6.27376 5.06201 6.28524 5.17863 6.26286 5.29114C6.24048 5.40365 6.18524 5.50699 6.10413 5.58811C6.02301 5.66922 5.91967 5.72446 5.80716 5.74684C5.69465 5.76922 5.57803 5.75774 5.47205 5.71384C5.36607 5.66994 5.27549 5.5956 5.21176 5.50022C5.14802 5.40484 5.11401 5.2927 5.11401 5.17799C5.11427 5.02424 5.17546 4.87687 5.28418 4.76816C5.39289 4.65944 5.54026 4.59825 5.69401 4.59799Z" fill="#B9B0B0"/>
</svg>
