<svg width="17" height="15" viewBox="0 0 17 15" fill="none" xmlns="http://www.w3.org/2000/svg">
<path d="M13.181 0.0689984C12.6002 -0.0388922 12.003 -0.0190117 11.4307 0.127258C10.8584 0.273528 10.3248 0.542678 9.86701 0.915998C9.48524 1.22783 9.00745 1.39816 8.51451 1.39816C8.02157 1.39816 7.54378 1.22783 7.16201 0.915998C6.43868 0.323193 5.53222 -0.000520401 4.59701 -1.58026e-06C3.97628 -0.00159462 3.36308 0.135979 2.80252 0.402601C2.24197 0.669223 1.74831 1.05811 1.35785 1.54066C0.967399 2.02321 0.690082 2.58716 0.546299 3.19101C0.402516 3.79486 0.395924 4.42326 0.527008 5.03C1.16101 9.94 6.88701 13.184 8.51601 14.013C10.143 13.184 15.872 9.94 16.503 5.03C16.6918 3.93475 16.4522 2.80886 15.8338 1.88539C15.2154 0.961916 14.2656 0.311578 13.181 0.0689984Z" fill="#DBDBDB"/>
</svg>
