<svg width="21" height="22" viewBox="0 0 21 22" fill="none" xmlns="http://www.w3.org/2000/svg">
<path d="M19.2389 21.013C19.4584 21.0161 19.6738 20.9534 19.8574 20.8331C20.041 20.7128 20.1844 20.5403 20.2691 20.3378C20.3539 20.1353 20.3761 19.912 20.3329 19.6968C20.2898 19.4816 20.1832 19.2842 20.0269 19.13L16.3269 15.43C17.743 13.6263 18.4179 11.3503 18.214 9.06619C18.01 6.78205 16.9426 4.66168 15.2293 3.13737C13.516 1.61305 11.2859 0.799562 8.99351 0.862736C6.70115 0.92591 4.51917 1.86099 2.89243 3.47736C1.2657 5.09372 0.316677 7.26965 0.238838 9.56156C0.160999 11.8535 0.960226 14.0888 2.47355 15.8118C3.98687 17.5348 6.10034 18.6158 8.38313 18.8343C10.6659 19.0529 12.9461 18.3926 14.7589 16.988L18.4589 20.688C18.5614 20.791 18.6833 20.8726 18.8175 20.9282C18.9517 20.9838 19.0956 21.0123 19.2409 21.012M2.59089 9.959C2.59089 8.63387 2.98383 7.33849 3.72004 6.23668C4.45624 5.13487 5.50264 4.27612 6.72691 3.76901C7.95117 3.2619 9.29833 3.12922 10.598 3.38774C11.8977 3.64626 13.0915 4.28437 14.0285 5.22139C14.9655 6.1584 15.6036 7.35222 15.8622 8.6519C16.1207 9.95157 15.988 11.2987 15.4809 12.523C14.9738 13.7472 14.115 14.7936 13.0132 15.5298C11.9114 16.2661 10.616 16.659 9.2909 16.659C7.5146 16.6569 5.81165 15.9503 4.55561 14.6943C3.29958 13.4382 2.59301 11.7353 2.59089 9.959Z" fill="black"/>
</svg>
